External Loads File
version=1
nRows=70
nColumns=13
Range=5.000000e-03-10 seconds
endheader
time 	forceRightX 	forceRightY 	forceRightZ 	pointRightX 	pointRightY 	pointRightZ 	forceLeftX 	forceLeftY 	forceLeftZ 	pointLeftX 	pointLeftY 	pointLeftZ 		
5.005000 -160.658537 391.060320 -0.000000 0.448250 0.348923 -0.125163 118.806488 24.902042 -0.000000 0.152400 0.296670 -0.360790
5.010000 -161.348057 404.362863 -0.000000 0.449512 0.337936 -0.125082 123.604804 24.938385 -0.000000 0.151616 0.307385 -0.360770
5.015000 -159.867096 419.831176 -0.000000 0.450243 0.326806 -0.125000 127.352345 23.292576 -0.000000 0.151518 0.318280 -0.360768
5.020000 -156.491222 437.167516 -0.000000 0.450335 0.315753 -0.124850 129.757504 20.178532 -0.000000 0.152080 0.329178 -0.360758
5.025000 -150.614580 456.239961 -0.000000 0.449571 0.304569 -0.124916 130.602022 15.603332 -0.000000 0.153304 0.340120 -0.360705
5.030000 -142.418166 476.484053 -0.000000 0.448446 0.293322 -0.124439 129.705309 9.868252 -0.000000 0.155205 0.350985 -0.360636
5.035000 -131.072500 497.528296 -0.000000 0.446296 0.281725 -0.124905 127.018945 3.010765 -0.000000 0.157789 0.361825 -0.360639
5.040000 -118.732617 518.133349 -0.000000 0.443727 0.271123 -0.125122 122.577940 -4.214210 -0.000000 0.161076 0.372728 -0.360708
5.045000 -105.026202 537.807801 -0.000000 0.440478 0.260543 -0.125178 116.557863 -11.828665 -0.000000 0.165137 0.382897 -0.360774
5.050000 -90.972364 555.784270 -0.000000 0.438209 0.250344 -0.126199 109.205097 -19.610409 -0.000000 0.169707 0.393088 -0.360559
5.055000 -74.623732 571.840279 -0.000000 0.433913 0.240515 -0.126305 100.678495 -27.954949 -0.000000 0.175001 0.403005 -0.360561
5.060000 -55.447024 585.350532 -0.000000 0.428065 0.230452 -0.125571 91.087792 -36.821667 -0.000000 0.180720 0.412612 -0.360476
5.065000 -37.808708 595.275502 -0.000000 0.422722 0.221434 -0.125591 80.845772 -45.395989 -0.000000 0.186844 0.421901 -0.360480
5.070000 -19.732425 601.316015 -0.000000 0.416923 0.212732 -0.125531 69.979555 -53.924890 -0.000000 0.193443 0.430826 -0.360334
5.075000 -0.130074 602.909421 -0.000000 0.410727 0.204271 -0.125422 58.442967 -62.389924 -0.000000 0.201368 0.439385 -0.361364
5.080000 17.316043 599.495212 -0.000000 0.404198 0.196528 -0.125392 46.664657 -70.248237 -0.000000 0.208720 0.447426 -0.360332
5.085000 34.604367 590.630599 -0.000000 0.397185 0.189263 -0.125369 34.563285 -77.493828 -0.000000 0.216501 0.455093 -0.360427
5.090000 51.569009 575.840592 -0.000000 0.389807 0.182352 -0.125318 22.319775 -83.835445 -0.000000 0.224899 0.462089 -0.360699
5.095000 67.091691 554.822559 -0.000000 0.382129 0.176062 -0.125321 10.315797 -88.979740 -0.000000 0.233362 0.468622 -0.360543
5.100000 81.030956 527.391832 -0.000000 0.374184 0.170561 -0.125314 -1.191790 -92.773366 -0.000000 0.242056 0.474592 -0.360555
5.105000 92.985506 493.694581 -0.000000 0.366233 0.165608 -0.125349 -11.957288 -95.138123 -0.000000 0.251007 0.479879 -0.360831
5.110000 102.766587 454.283257 -0.000000 0.358029 0.161308 -0.125214 -21.828347 -96.055086 -0.000000 0.259985 0.484508 -0.361012
5.115000 111.071778 409.961157 -0.000000 0.348891 0.157768 -0.124725 -30.909929 -95.487666 -0.000000 0.269085 0.488325 -0.361360
5.120000 116.692813 362.391029 -0.000000 0.339751 0.154774 -0.125303 -38.945469 -93.541791 -0.000000 0.278273 0.491584 -0.361672
5.125000 119.302452 313.347129 -0.000000 0.330827 0.152456 -0.125496 -45.849802 -90.354984 -0.000000 0.287384 0.494126 -0.362023
5.130000 119.600932 264.228671 -0.000000 0.321823 0.150613 -0.125641 -51.824286 -85.939097 -0.000000 0.296465 0.495944 -0.362419
5.135000 117.988830 216.253958 -0.000000 0.312657 0.149527 -0.125761 -57.040851 -80.279620 -0.000000 0.305556 0.496972 -0.362805
5.140000 114.714652 170.419421 -0.000000 0.303480 0.148960 -0.125870 -61.659415 -73.343095 -0.000000 0.314667 0.497122 -0.363503
5.145000 110.273287 127.275861 -0.000000 0.293440 0.149065 -0.126036 -66.001603 -64.933756 -0.000000 0.323452 0.496624 -0.364207
5.150000 104.308526 87.875520 -0.000000 0.284312 0.149845 -0.126089 -70.015343 -55.250138 -0.000000 0.331943 0.495452 -0.364564
5.155000 97.506894 52.258624 -0.000000 0.275191 0.151282 -0.126147 -74.200699 -44.004442 -0.000000 0.340128 0.493688 -0.364983
5.160000 90.003082 20.695336 -0.000000 0.266268 0.153342 -0.126385 -78.850308 -31.081127 -0.000000 0.348038 0.491087 -0.365294
5.165000 81.910159 -6.600391 -0.000000 0.257768 0.156046 -0.126528 -84.247985 -16.338244 -0.000000 0.355855 0.487766 -0.365756
5.170000 73.326084 -29.493661 -0.000000 0.249293 0.159239 -0.126560 -90.636138 0.459494 -0.000000 0.363459 0.483564 -0.366195
5.175000 64.446995 -47.704593 -0.000000 0.241037 0.162993 -0.126570 -98.167167 19.347593 -0.000000 0.370642 0.478867 -0.366535
5.180000 55.560105 -61.172755 -0.000000 0.233106 0.167283 -0.126526 -106.949360 40.441473 -0.000000 0.377588 0.473644 -0.366819
5.185000 46.979337 -70.009213 -0.000000 0.225390 0.172062 -0.126506 -116.958375 63.794535 -0.000000 0.384162 0.467335 -0.367147
5.190000 39.131738 -74.473739 -0.000000 0.218025 0.177364 -0.126483 -128.162596 89.103376 -0.000000 0.390442 0.460560 -0.367539
5.195000 32.317107 -75.131832 -0.000000 0.210988 0.183314 -0.126392 -140.418808 115.978586 -0.000000 0.396431 0.453166 -0.367992
5.200000 26.828787 -72.667124 -0.000000 0.204265 0.189711 -0.126341 -153.644411 143.698950 -0.000000 0.401991 0.445020 -0.368506
5.205000 22.735508 -67.857798 -0.000000 0.197819 0.196747 -0.126263 -167.438594 171.744031 -0.000000 0.407807 0.436399 -0.368849
5.210000 20.238616 -61.362172 -0.000000 0.191854 0.204444 -0.126136 -181.796665 199.180297 -0.000000 0.413393 0.427272 -0.369055
5.215000 19.423942 -53.760213 -0.000000 0.187165 0.212990 -0.125102 -196.900834 225.106197 -0.000000 0.418561 0.417876 -0.369346
5.220000 20.009016 -45.598565 -0.000000 0.182280 0.221651 -0.124711 -211.925009 249.709954 -0.000000 0.423525 0.408117 -0.369499
5.225000 21.816828 -37.261091 -0.000000 0.177619 0.230655 -0.124613 -226.537975 272.941534 -0.000000 0.428369 0.398052 -0.369523
5.230000 24.542578 -29.103350 -0.000000 0.172438 0.240319 -0.125678 -239.935502 295.390928 -0.000000 0.432914 0.387834 -0.369317
5.235000 28.017903 -21.253917 -0.000000 0.168788 0.250217 -0.125657 -253.343008 316.215522 -0.000000 0.436675 0.377433 -0.369544
5.240000 31.786419 -13.982218 -0.000000 0.165659 0.260422 -0.125766 -265.736533 336.594055 -0.000000 0.439977 0.366876 -0.369584
5.245000 35.522361 -7.510774 -0.000000 0.163131 0.270953 -0.125849 -276.737755 357.282429 -0.000000 0.442880 0.356106 -0.369547
5.250000 38.953312 -2.034913 -0.000000 0.161327 0.281675 -0.125951 -286.465349 378.655204 -0.000000 0.445358 0.345310 -0.369226
5.255000 41.804086 2.198817 -0.000000 0.159814 0.292392 -0.126298 -294.556833 401.331174 -0.000000 0.446995 0.334267 -0.369411
5.260000 43.792951 4.952254 -0.000000 0.159368 0.303557 -0.126391 -300.155051 426.004230 -0.000000 0.448173 0.323115 -0.369396
5.265000 44.621835 6.237190 -0.000000 0.159450 0.314811 -0.126451 -303.351343 452.297380 -0.000000 0.448710 0.312053 -0.369386
5.270000 44.056157 6.174357 -0.000000 0.160058 0.326045 -0.126436 -303.547815 479.977349 -0.000000 0.448768 0.300942 -0.369442
5.275000 42.001972 5.001283 -0.000000 0.161355 0.337518 -0.126660 -299.935287 508.672620 -0.000000 0.448007 0.289933 -0.369218
5.280000 38.511157 3.128215 -0.000000 0.163316 0.348802 -0.126662 -293.000348 537.112093 -0.000000 0.446661 0.279147 -0.369107
5.285000 33.783857 0.841484 -0.000000 0.166223 0.360104 -0.126997 -281.636612 564.916415 -0.000000 0.444733 0.268427 -0.368977
5.290000 28.100162 -1.479645 -0.000000 0.169387 0.371128 -0.127357 -266.866107 590.583101 -0.000000 0.442116 0.257960 -0.368834
5.295000 21.784176 -3.664519 -0.000000 0.172873 0.382257 -0.127301 -248.195186 613.473553 -0.000000 0.438878 0.247772 -0.368707
5.300000 15.146990 -5.585329 -0.000000 0.177129 0.392728 -0.127839 -226.725295 632.342610 -0.000000 0.434996 0.237829 -0.368631
5.305000 8.436318 -7.240188 -0.000000 0.182160 0.403112 -0.128113 -201.929230 646.721794 -0.000000 0.430577 0.228260 -0.368516
5.310000 1.855692 -8.583045 -0.000000 0.187699 0.413054 -0.128216 -174.934210 655.684170 -0.000000 0.425562 0.219003 -0.368384
5.315000 -4.447499 -9.534669 -0.000000 0.193882 0.422719 -0.128079 -146.025608 658.777044 -0.000000 0.419986 0.210187 -0.368227
5.320000 -10.353939 -9.971035 -0.000000 0.199770 0.432026 -0.128681 -117.426087 655.339673 -0.000000 0.413905 0.201788 -0.368068
5.325000 -15.853886 -9.704225 -0.000000 0.206377 0.440851 -0.128776 -88.510533 645.600112 -0.000000 0.407247 0.193874 -0.367953
5.330000 -20.999979 -8.426965 -0.000000 0.215209 0.449410 -0.127701 -57.472851 629.958192 -0.000000 0.400145 0.186505 -0.367773
5.335000 -25.722065 -6.147303 -0.000000 0.222284 0.457218 -0.128591 -31.992989 608.232063 -0.000000 0.392666 0.179773 -0.367668
5.340000 -30.111245 -2.625781 -0.000000 0.229834 0.464350 -0.128843 -8.447288 581.823906 -0.000000 0.384732 0.173627 -0.367509
5.345000 -34.187126 2.147186 -0.000000 0.237842 0.470954 -0.128970 13.121446 551.797984 -0.000000 0.376405 0.168067 -0.367306
5.350000 -37.951988 7.999138 -0.000000 0.246204 0.476917 -0.129027 32.558364 519.288726 -0.000000 0.367698 0.163110 -0.367094
